# File created by Blade
# Date/Time:  Tue Apr 07 20:41:02 2015
# Frame Rate: 120.000 fps
#------------------------------------------------------
:FULLY-SPECIFIED
:DEGREES
797
root 1.239602 34.806856 0.208478 13.842734 -19.123613 -47.406553
Spine 4.551707 25.701057 35.595826
Head 7.721565 -8.310554 7.232519
LeftShoulder -21.677834 29.142393 28.867964
LeftArm 36.932241 -71.535748 -27.427558
LeftForeArm 16.774874 -0.000000 5.874435
LeftHand 8.442924 -0.000000 13.194551
LeftHandThumb1 -26.253704 0.000000 33.147579
RightShoulder -8.790242 36.695546 -31.354891
RightArm 56.528533 79.755022 88.726394
RightForeArm 39.260905 -0.000000 58.378089
RightHand 0.438244 -0.000000 30.594658
RightHandThumb1 -24.326973 -0.000000 -32.862282
LeftUpLeg -5.679792 2.291581 41.941052
LeftLeg 27.315930 -0.000000 -0.000000
LeftFoot -15.006890 10.347978 -33.081922
LeftToeBase -11.274124 -0.000000 0.000000
RightUpLeg -136.300932 -53.872791 24.201424
RightLeg -10.084807 -0.000000 0.000000
RightFoot 37.339216 -18.081531 11.942147
RightToeBase 18.006076 -0.000000 -0.000000
798
root 1.238021 34.800806 0.221303 13.558654 -18.922514 -47.236962
Spine 4.487571 25.617671 35.401167
Head 7.934954 -8.547947 7.172170
LeftShoulder -21.672047 29.128302 28.822886
LeftArm 37.163175 -71.296659 -27.550210
LeftForeArm 16.963716 -0.000000 6.123329
LeftHand 8.555010 -0.000000 13.318354
LeftHandThumb1 -26.253704 0.000000 33.147579
RightShoulder -8.800408 36.631783 -31.381605
RightArm 56.673906 79.804564 88.917776
RightForeArm 39.695531 0.000000 58.435921
RightHand 0.504595 -0.000000 30.446918
RightHandThumb1 -24.326973 -0.000000 -32.862282
LeftUpLeg -5.456111 1.949068 41.915516
LeftLeg 27.037386 -0.000000 -0.000000
LeftFoot -14.987754 9.748057 -33.129855
LeftToeBase -10.993604 -0.000000 0.000000
RightUpLeg -136.420465 -53.965585 24.248129
RightLeg -10.294467 -0.000000 0.000000
RightFoot 37.246576 -18.261999 12.182055
RightToeBase 17.905413 -0.000000 -0.000000
799
root 1.236795 34.791597 0.235513 13.305797 -18.739625 -47.095992
Spine 4.394255 25.569033 35.224034
Head 8.176211 -8.809824 7.111193
LeftShoulder -21.629113 29.164185 28.775084
LeftArm 37.184269 -71.075522 -27.437195
LeftForeArm 17.202735 -0.000000 6.360602
LeftHand 8.573106 -0.000000 13.364841
LeftHandThumb1 -26.253704 0.000000 33.147579
RightShoulder -8.863810 36.546239 -31.409448
RightArm 56.840775 79.755898 89.176750
RightForeArm 39.959107 -0.000000 58.457406
RightHand 0.394936 -0.000000 30.743867
RightHandThumb1 -24.326973 -0.000000 -32.862282
LeftUpLeg -5.181521 1.805845 41.839891
LeftLeg 26.613684 -0.000000 -0.000000
LeftFoot -15.158689 9.477542 -33.046397
LeftToeBase -10.340718 -0.000000 0.000000
RightUpLeg -136.573549 -53.995852 24.348690
RightLeg -10.475641 -0.000000 0.000000
RightFoot 37.169507 -18.396061 12.297097
RightToeBase 17.881138 -0.000000 -0.000000
800
root 1.234852 34.779081 0.249553 13.060165 -18.569425 -46.962842
Spine 4.295250 25.537994 35.042835
Head 8.443352 -9.079129 7.070603
LeftShoulder -21.618143 29.139526 28.766976
LeftArm 37.460912 -70.873303 -27.556379
LeftForeArm 17.426587 -0.000000 6.593849
LeftHand 8.545177 0.000000 13.064058
LeftHandThumb1 -26.253704 0.000000 33.147579
RightShoulder -8.889614 36.473621 -31.395829
RightArm 57.321955 79.741095 89.745870
RightForeArm 40.213846 -0.000000 58.478177
RightHand 0.516491 -0.000000 30.615546
RightHandThumb1 -24.326973 -0.000000 -32.862282
LeftUpLeg -4.879569 1.811243 41.707242
LeftLeg 26.099007 -0.000000 -0.000000
LeftFoot -15.454468 9.510667 -32.865405
LeftToeBase -9.736795 -0.000000 0.000000
RightUpLeg -136.774604 -53.958681 24.489047
RightLeg -10.579196 -0.000000 0.000000
RightFoot 37.084053 -18.519751 12.361752
RightToeBase 17.975096 -0.000000 -0.000000
801
root 1.235294 34.763886 0.261658 12.819582 -18.415284 -46.874622
Spine 4.214667 25.512003 34.927562
Head 8.720480 -9.360985 6.997773
LeftShoulder -21.553340 29.144858 28.769964
LeftArm 37.613179 -70.736036 -27.582046
LeftForeArm 17.517560 -0.000000 6.831647
LeftHand 8.571151 0.000000 12.871476
LeftHandThumb1 -26.253704 0.000000 33.147579
RightShoulder -8.866917 36.442612 -31.348475
RightArm 58.051205 79.741547 90.550866
RightForeArm 40.203912 0.000000 58.493402
RightHand 0.425234 -0.000000 30.731726
RightHandThumb1 -24.326973 -0.000000 -32.862282
LeftUpLeg -4.564465 1.996625 41.565362
LeftLeg 25.560180 -0.000000 -0.000000
LeftFoot -15.930575 9.772505 -32.631299
LeftToeBase -8.753757 -0.000000 0.000000
RightUpLeg -136.930873 -53.881797 24.642818
RightLeg -10.656065 -0.000000 0.000000
RightFoot 37.099446 -18.577608 12.345185
RightToeBase 17.996176 -0.000000 -0.000000
802
root 1.237127 34.747093 0.271407 12.594403 -18.244546 -46.825264
Spine 4.144279 25.466999 34.867996
Head 8.964539 -9.587694 6.889399
LeftShoulder -21.545820 29.138344 28.734036
LeftArm 38.035486 -70.709842 -27.858157
LeftForeArm 17.763017 -0.000000 7.074137
LeftHand 8.467145 -0.000000 12.605537
LeftHandThumb1 -26.253704 0.000000 33.147579
RightShoulder -8.889007 36.481459 -31.343971
RightArm 58.056615 79.681351 90.647713
RightForeArm 40.263094 -0.000000 58.448943
RightHand 0.458053 -0.000000 30.708948
RightHandThumb1 -24.326973 -0.000000 -32.862282
LeftUpLeg -4.290860 2.311824 41.441013
LeftLeg 25.054439 -0.000000 -0.000000
LeftFoot -16.469728 10.126322 -32.360900
LeftToeBase -7.770693 -0.000000 0.000000
RightUpLeg -137.098519 -53.785451 24.847799
RightLeg -10.701304 -0.000000 0.000000
RightFoot 37.108756 -18.650717 12.368523
RightToeBase 18.127176 -0.000000 -0.000000
803
root 1.239751 34.727821 0.279705 12.382613 -18.088401 -46.786553
Spine 4.071671 25.441711 34.815697
Head 9.200080 -9.798673 6.786928
LeftShoulder -21.458125 29.054940 28.817044
LeftArm 38.212132 -70.610386 -27.998637
LeftForeArm 17.757949 -0.000000 7.394109
LeftHand 8.299150 -0.000000 12.476334
LeftHandThumb1 -26.253704 0.000000 33.147579
RightShoulder -8.850073 36.457472 -31.285680
RightArm 58.108843 79.645860 90.730405
RightForeArm 40.447944 -0.000000 58.330586
RightHand 0.541727 -0.000000 30.596226
RightHandThumb1 -24.326973 -0.000000 -32.862282
LeftUpLeg -4.062028 2.734234 41.303065
LeftLeg 24.608465 -0.000000 -0.000000
LeftFoot -17.061589 10.596349 -32.108081
LeftToeBase -6.703646 -0.000000 0.000000
RightUpLeg -137.296482 -53.624759 25.064349
RightLeg -10.647487 -0.000000 0.000000
RightFoot 37.156132 -18.616576 12.207666
RightToeBase 18.096643 -0.000000 -0.000000
804
root 1.242189 34.708673 0.279957 12.174912 -17.908267 -46.762752
Spine 4.034281 25.387407 34.783558
Head 9.339064 -9.982376 6.675474
LeftShoulder -21.442409 29.019308 28.797722
LeftArm 38.604101 -70.703902 -28.269870
LeftForeArm 17.821007 0.000000 7.621555
LeftHand 8.419647 -0.000000 12.263111
LeftHandThumb1 -26.253704 0.000000 33.147579
RightShoulder -8.776636 36.476941 -31.208148
RightArm 58.064183 79.630859 90.689998
RightForeArm 40.610770 -0.000000 58.186692
RightHand 0.555461 -0.000000 30.590381
RightHandThumb1 -24.326973 -0.000000 -32.862282
LeftUpLeg -3.928174 3.322008 41.197726
LeftLeg 24.261540 -0.000000 -0.000000
LeftFoot -17.598383 10.978522 -31.936400
LeftToeBase -5.776417 -0.000000 0.000000
RightUpLeg -137.418950 -53.511090 25.213556
RightLeg -10.592518 -0.000000 0.000000
RightFoot 37.190214 -18.741279 12.100998
RightToeBase 18.034829 -0.000000 -0.000000
805
root 1.245148 34.690975 0.274174 11.982556 -17.702741 -46.808936
Spine 4.036125 25.336122 34.850784
Head 9.383758 -10.143050 6.555286
LeftShoulder -21.424905 28.930118 28.833549
LeftArm 39.035051 -70.745995 -28.664984
LeftForeArm 17.874044 -0.000000 7.934352
LeftHand 8.290050 0.000000 12.163077
LeftHandThumb1 -26.253704 0.000000 33.147579
RightShoulder -8.726865 36.457711 -31.182650
RightArm 57.986019 79.621105 90.625819
RightForeArm 40.816695 -0.000000 58.018651
RightHand 0.679233 0.000000 30.527951
RightHandThumb1 -24.326973 -0.000000 -32.862282
LeftUpLeg -3.833977 3.809231 41.168350
LeftLeg 23.935566 -0.000000 -0.000000
LeftFoot -18.116860 11.437910 -31.751651
LeftToeBase -4.958942 -0.000000 0.000000
RightUpLeg -137.475506 -53.427924 25.351591
RightLeg -10.492146 -0.000000 0.000000
RightFoot 37.211889 -18.817358 11.948299
RightToeBase 17.851113 -0.000000 -0.000000
806
root 1.246733 34.673816 0.259379 11.814384 -17.479549 -46.858961
Spine 4.041890 25.306108 34.915803
Head 9.351049 -10.314255 6.415272
LeftShoulder -21.364526 28.786716 28.856323
LeftArm 39.170465 -70.767277 -28.660811
LeftForeArm 17.932371 -0.000000 8.117776
LeftHand 8.181709 0.000000 12.300191
LeftHandThumb1 -26.253704 0.000000 33.147579
RightShoulder -8.665074 36.382659 -31.144186
RightArm 58.029353 79.631412 90.652394
RightForeArm 41.037839 -0.000000 57.873501
RightHand 0.696190 -0.000000 30.417936
RightHandThumb1 -24.326973 -0.000000 -32.862282
LeftUpLeg -3.800282 4.087202 41.139183
LeftLeg 23.659604 -0.000000 -0.000000
LeftFoot -18.705656 12.161042 -31.248907
LeftToeBase -3.689895 -0.000000 0.000000
RightUpLeg -137.489245 -53.399171 25.415936
RightLeg -10.383376 -0.000000 0.000000
RightFoot 37.235011 -18.938208 11.944590
RightToeBase 17.749694 -0.000000 -0.000000
807
root 1.252962 34.658545 0.240582 11.653768 -17.212063 -46.944248
Spine 4.084049 25.277865 35.051115
Head 9.188749 -10.504903 6.261469
LeftShoulder -21.401456 28.731277 28.811725
LeftArm 39.827110 -70.936130 -29.169324
LeftForeArm 18.140790 -0.000000 8.288256
LeftHand 8.157386 -0.000000 12.188593
LeftHandThumb1 -26.253704 0.000000 33.147579
RightShoulder -8.643511 36.365836 -31.158509
RightArm 57.817159 79.662852 90.399820
RightForeArm 41.107513 -0.000000 57.747480
RightHand 0.730954 -0.000000 30.362928
RightHandThumb1 -24.326973 -0.000000 -32.862282
LeftUpLeg -3.827706 4.471765 41.192786
LeftLeg 23.446613 -0.000000 -0.000000
LeftFoot -18.993148 12.527756 -30.778050
LeftToeBase -3.321345 -0.000000 0.000000
RightUpLeg -137.422713 -53.439412 25.461725
RightLeg -10.332138 -0.000000 0.000000
RightFoot 37.274238 -19.025846 11.990806
RightToeBase 17.759694 -0.000000 -0.000000
